<svg xmlns="http://www.w3.org/2000/svg" xmlns:xlink="http://www.w3.org/1999/xlink" version="1.1" width="256" height="256" viewBox="0 0 256 256" xml:space="preserve">
<desc>Created with Fabric.js 1.7.22</desc>
<defs>
</defs>
<g transform="translate(128 128) scale(1.21 1.21)" style="">
	<g style="stroke: none; stroke-width: 0; stroke-dasharray: none; stroke-linecap: butt; stroke-linejoin: miter; stroke-miterlimit: 10; fill: none; fill-rule: nonzero; opacity: 1;" transform="translate(-104.85 -104.85000000000001) scale(2.33 2.33)" >
	<path d="M 49.501 20 H 7.378 c -0.552 0 -1 -0.448 -1 -1 s 0.448 -1 1 -1 h 42.123 c 0.553 0 1 0.448 1 1 S 50.054 20 49.501 20 z" style="stroke: none; stroke-width: 1; stroke-dasharray: none; stroke-linecap: butt; stroke-linejoin: miter; stroke-miterlimit: 10; fill: rgb(0,0,0); fill-rule: nonzero; opacity: 1;" transform=" matrix(1 0 0 1 0 0) " stroke-linecap="round" />
	<path d="M 82.622 20 h -3.814 c -0.553 0 -1 -0.448 -1 -1 s 0.447 -1 1 -1 h 3.814 c 0.553 0 1 0.448 1 1 S 83.175 20 82.622 20 z" style="stroke: none; stroke-width: 1; stroke-dasharray: none; stroke-linecap: butt; stroke-linejoin: miter; stroke-miterlimit: 10; fill: rgb(0,0,0); fill-rule: nonzero; opacity: 1;" transform=" matrix(1 0 0 1 0 0) " stroke-linecap="round" />
	<path d="M 73.622 20 h -3.814 c -0.553 0 -1 -0.448 -1 -1 s 0.447 -1 1 -1 h 3.814 c 0.553 0 1 0.448 1 1 S 74.175 20 73.622 20 z" style="stroke: none; stroke-width: 1; stroke-dasharray: none; stroke-linecap: butt; stroke-linejoin: miter; stroke-miterlimit: 10; fill: rgb(0,0,0); fill-rule: nonzero; opacity: 1;" transform=" matrix(1 0 0 1 0 0) " stroke-linecap="round" />
	<path d="M 46.907 79.28 h -3.814 c -0.552 0 -1 -0.447 -1 -1 s 0.448 -1 1 -1 h 3.814 c 0.553 0 1 0.447 1 1 S 47.46 79.28 46.907 79.28 z" style="stroke: none; stroke-width: 1; stroke-dasharray: none; stroke-linecap: butt; stroke-linejoin: miter; stroke-miterlimit: 10; fill: rgb(0,0,0); fill-rule: nonzero; opacity: 1;" transform=" matrix(1 0 0 1 0 0) " stroke-linecap="round" />
	<path d="M 85.427 10.719 H 4.573 C 2.052 10.719 0 12.771 0 15.292 v 59.416 c 0 2.521 2.052 4.572 4.573 4.572 h 31.5 c 0.552 0 1 -0.447 1 -1 s -0.448 -1 -1 -1 h -31.5 C 3.154 77.28 2 76.126 2 74.708 V 26.016 h 86 v 48.692 c 0 1.418 -1.154 2.572 -2.573 2.572 h -31.5 c -0.553 0 -1 0.447 -1 1 s 0.447 1 1 1 h 31.5 c 2.521 0 4.573 -2.051 4.573 -4.572 V 15.292 C 90 12.771 87.948 10.719 85.427 10.719 z M 2 24.016 v -8.723 c 0 -1.419 1.154 -2.573 2.573 -2.573 h 80.854 c 1.419 0 2.573 1.154 2.573 2.573 v 8.723 H 2 z" style="stroke: none; stroke-width: 1; stroke-dasharray: none; stroke-linecap: butt; stroke-linejoin: miter; stroke-miterlimit: 10; fill: rgb(0,0,0); fill-rule: nonzero; opacity: 1;" transform=" matrix(1 0 0 1 0 0) " stroke-linecap="round" />
	<path d="M 18.275 46.876 h -6.483 c -1.462 0 -2.651 -1.19 -2.651 -2.652 v -6.483 c 0 -1.462 1.189 -2.651 2.651 -2.651 h 6.483 c 1.462 0 2.651 1.189 2.651 2.651 v 6.483 C 20.927 45.686 19.737 46.876 18.275 46.876 z M 11.792 37.09 c -0.359 0 -0.651 0.292 -0.651 0.651 v 6.483 c 0 0.359 0.292 0.651 0.651 0.651 h 6.483 c 0.359 0 0.651 -0.292 0.651 -0.651 v -6.483 c 0 -0.359 -0.292 -0.651 -0.651 -0.651 H 11.792 z" style="stroke: none; stroke-width: 1; stroke-dasharray: none; stroke-linecap: butt; stroke-linejoin: miter; stroke-miterlimit: 10; fill: rgb(0,0,0); fill-rule: nonzero; opacity: 1;" transform=" matrix(1 0 0 1 0 0) " stroke-linecap="round" />
	<path d="M 14.403 43.091 c -0.012 0 -0.023 0 -0.035 0 c -0.284 -0.01 -0.551 -0.141 -0.733 -0.359 l -0.87 -1.043 c -0.354 -0.424 -0.296 -1.055 0.128 -1.408 c 0.424 -0.355 1.055 -0.297 1.408 0.128 l 0.154 0.185 l 1.356 -1.412 c 0.383 -0.398 1.016 -0.41 1.414 -0.028 c 0.398 0.383 0.411 1.016 0.028 1.414 l -2.13 2.217 C 14.936 42.981 14.675 43.091 14.403 43.091 z" style="stroke: none; stroke-width: 1; stroke-dasharray: none; stroke-linecap: butt; stroke-linejoin: miter; stroke-miterlimit: 10; fill: rgb(0,0,0); fill-rule: nonzero; opacity: 1;" transform=" matrix(1 0 0 1 0 0) " stroke-linecap="round" />
	<path d="M 79.858 37.09 H 29.491 c -0.552 0 -1 -0.448 -1 -1 s 0.448 -1 1 -1 h 50.368 c 0.553 0 1 0.448 1 1 S 80.411 37.09 79.858 37.09 z" style="stroke: none; stroke-width: 1; stroke-dasharray: none; stroke-linecap: butt; stroke-linejoin: miter; stroke-miterlimit: 10; fill: rgb(0,0,0); fill-rule: nonzero; opacity: 1;" transform=" matrix(1 0 0 1 0 0) " stroke-linecap="round" />
	<path d="M 64.061 46.875 h -34.57 c -0.552 0 -1 -0.447 -1 -1 s 0.448 -1 1 -1 h 34.57 c 0.553 0 1 0.448 1 1 S 64.613 46.875 64.061 46.875 z" style="stroke: none; stroke-width: 1; stroke-dasharray: none; stroke-linecap: butt; stroke-linejoin: miter; stroke-miterlimit: 10; fill: rgb(0,0,0); fill-rule: nonzero; opacity: 1;" transform=" matrix(1 0 0 1 0 0) " stroke-linecap="round" />
	<path d="M 79.858 41.982 H 29.491 c -0.552 0 -1 -0.448 -1 -1 s 0.448 -1 1 -1 h 50.368 c 0.553 0 1 0.448 1 1 S 80.411 41.982 79.858 41.982 z" style="stroke: none; stroke-width: 1; stroke-dasharray: none; stroke-linecap: butt; stroke-linejoin: miter; stroke-miterlimit: 10; fill: rgb(0,0,0); fill-rule: nonzero; opacity: 1;" transform=" matrix(1 0 0 1 0 0) " stroke-linecap="round" />
	<path d="M 18.275 66.875 h -6.483 c -1.462 0 -2.651 -1.189 -2.651 -2.651 v -6.482 c 0 -1.462 1.189 -2.651 2.651 -2.651 h 6.483 c 1.462 0 2.651 1.189 2.651 2.651 v 6.482 C 20.927 65.686 19.737 66.875 18.275 66.875 z M 11.792 57.09 c -0.359 0 -0.651 0.292 -0.651 0.651 v 6.482 c 0 0.359 0.292 0.651 0.651 0.651 h 6.483 c 0.359 0 0.651 -0.292 0.651 -0.651 v -6.482 c 0 -0.359 -0.292 -0.651 -0.651 -0.651 H 11.792 z" style="stroke: none; stroke-width: 1; stroke-dasharray: none; stroke-linecap: butt; stroke-linejoin: miter; stroke-miterlimit: 10; fill: rgb(0,0,0); fill-rule: nonzero; opacity: 1;" transform=" matrix(1 0 0 1 0 0) " stroke-linecap="round" />
	<path d="M 14.403 63.092 c -0.012 0 -0.023 0 -0.035 -0.001 c -0.285 -0.01 -0.551 -0.141 -0.733 -0.359 l -0.87 -1.044 c -0.354 -0.424 -0.296 -1.055 0.128 -1.408 c 0.424 -0.353 1.055 -0.297 1.409 0.129 l 0.154 0.185 l 1.356 -1.411 c 0.383 -0.4 1.016 -0.411 1.414 -0.028 c 0.398 0.382 0.411 1.016 0.028 1.413 l -2.13 2.218 C 14.936 62.981 14.675 63.092 14.403 63.092 z" style="stroke: none; stroke-width: 1; stroke-dasharray: none; stroke-linecap: butt; stroke-linejoin: miter; stroke-miterlimit: 10; fill: rgb(0,0,0); fill-rule: nonzero; opacity: 1;" transform=" matrix(1 0 0 1 0 0) " stroke-linecap="round" />
	<path d="M 79.858 57.09 H 29.491 c -0.552 0 -1 -0.447 -1 -1 s 0.448 -1 1 -1 h 50.368 c 0.553 0 1 0.447 1 1 S 80.411 57.09 79.858 57.09 z" style="stroke: none; stroke-width: 1; stroke-dasharray: none; stroke-linecap: butt; stroke-linejoin: miter; stroke-miterlimit: 10; fill: rgb(0,0,0); fill-rule: nonzero; opacity: 1;" transform=" matrix(1 0 0 1 0 0) " stroke-linecap="round" />
	<path d="M 64.061 66.875 h -34.57 c -0.552 0 -1 -0.447 -1 -1 s 0.448 -1 1 -1 h 34.57 c 0.553 0 1 0.447 1 1 S 64.613 66.875 64.061 66.875 z" style="stroke: none; stroke-width: 1; stroke-dasharray: none; stroke-linecap: butt; stroke-linejoin: miter; stroke-miterlimit: 10; fill: rgb(0,0,0); fill-rule: nonzero; opacity: 1;" transform=" matrix(1 0 0 1 0 0) " stroke-linecap="round" />
	<path d="M 79.858 61.982 H 29.491 c -0.552 0 -1 -0.447 -1 -1 s 0.448 -1 1 -1 h 50.368 c 0.553 0 1 0.447 1 1 S 80.411 61.982 79.858 61.982 z" style="stroke: none; stroke-width: 1; stroke-dasharray: none; stroke-linecap: butt; stroke-linejoin: miter; stroke-miterlimit: 10; fill: rgb(0,0,0); fill-rule: nonzero; opacity: 1;" transform=" matrix(1 0 0 1 0 0) " stroke-linecap="round" />
</g>
</g>
</svg>